{"title":"The.Number.23.2007.1080p.DTS.AC3.iSAAC","uid":11343067,"size":18755246120,"categoryP":"video","categoryS":"hd___movies","magnet":"?xt=urn:btih:87cb5368e1fd522099c11b251b609bd47f1bf7a1&amp;dn=The.Number.23.2007.1080p.DTS.AC3.iSAAC&amp;tr=udp%3A%2F%2Ftracker.openbittorrent.com%3A80&amp;tr=udp%3A%2F%2Fopen.demonii.com%3A1337&amp;tr=udp%3A%2F%2Ftracker.coppersurfer.tk%3A6969&amp;tr=udp%3A%2F%2Fexodus.desync.com%3A6969","seeders":0,"leechers":2,"uploader":"Isaac09","files":-1,"time":1414816023,"description":"The.Number.23.2007.1080p.DTS.AC3.iSAAC\n\n\nDirector: Joel Schumacher\nWriters: Fernley Phillips\nStars: Jim Carrey, Virginia Madsen, Logan Lerman, Danny Huston\n  &lt;a href=&quot;\nhttp://www.imdb.com/title/tt0481369/&quot; rel=&quot;nofollow&quot; target=&quot;_NEW&quot;&gt;\nhttp://www.imdb.com/title/tt0481369/&lt;/a&gt;\n\nWalter Sparrow becomes obsessed with a novel that he believes was written about him. As his obsession increases, more and more similarities seem to arise.\n\nRUNTIME.......: 1h 41mn\nFRAMERATE.....: 23.976 fps\nBITRATE.......: 24.7 Mbps\nRESOLUTION....: 1920x1080\nSOURCE........: Russian Blu-Ray\nGENRE.........: Mystery, Thriller\n\nAUDIO 1.......: English DTS 5.1 @ 1509 Kbps\nAUDIO 2.......: English Commentary AC3 @ 192Kbps\nSUBTITLES.....: Russian, English, Danish, Portugese, Swedish\n\n\nFormat                                   : Matroska\nFormat version                           : Version 4 / Version 2\nFile size                                : 17.5 GiB\nDuration                                 : 1h 41mn\nOverall bit rate                         : 24.7 Mbps\nEncoded date                             : UTC 2014-10-15 19:20:11\nWriting application                      : mkvmerge v7.2.0 ('On Every Street') 64bit built on Sep 13 2014 15:52:10\nWriting library                          : libebml v1.3.0 + libmatroska v1.4.1\nDURATION                                 : 01:36:02.502000000\nNUMBER_OF_FRAMES                         : 842\nNUMBER_OF_BYTES                          : 38368\n_STATISTICS_WRITING_APP                  : mkvmerge v7.2.0 ('On Every Street') 64bit built on Sep 13 2014 15:52:10\n_STATISTICS_WRITING_DATE_UTC             : 2014-10-15 19:20:11\n_STATISTICS_TAGS                         : BPS DURATION NUMBER_OF_FRAMES NUMBER_OF_BYTES\n\nVideo\nID                                       : 1\nFormat                                   : VC-1\nFormat profile                           : Advanced@L3\nCodec ID                                 : V_MS/VFW/FOURCC / WVC1\nCodec ID/Hint                            : Microsoft\nDuration                                 : 1h 41mn\nBit rate                                 : 22.5 Mbps\nWidth                                    : 1 920 pixels\nHeight                                   : 1 080 pixels\nDisplay aspect ratio                     : 16:9\nFrame rate mode                          : Constant\nFrame rate                               : 23.976 fps\nColor space                              : YUV\nChroma subsampling                       : 4:2:0\nBit depth                                : 8 bits\nScan type                                : Progressive\nCompression mode                         : Lossy\nBits/(Pixel*Frame)                       : 0.453\nStream size                              : 15.9 GiB (91%)\nLanguage                                 : English\nDefault                                  : Yes\nForced                                   : No\nDURATION                                 : 01:41:16.696000000\nNUMBER_OF_FRAMES                         : 145695\nNUMBER_OF_BYTES                          : 17459630920\n_STATISTICS_WRITING_APP                  : mkvmerge v7.2.0 ('On Every Street') 64bit built on Sep 13 2014 15:52:10\n_STATISTICS_WRITING_DATE_UTC             : 2014-10-15 19:20:11\n_STATISTICS_TAGS                         : BPS DURATION NUMBER_OF_FRAMES NUMBER_OF_BYTES\n\nAudio #1\nID                                       : 2\nFormat                                   : DTS\nFormat/Info                              : Digital Theater Systems\nFormat profile                           : ES\nMode                                     : 16\nFormat settings, Endianness              : Big\nCodec ID                                 : A_DTS\nDuration                                 : 1h 41mn\nBit rate mode                            : Constant\nBit rate                                 : 1 509 Kbps\nChannel(s)                               : 6 channels\nChannel positions                        : Front: L C R, Side: L R, LFE\nSampling rate                            : 48.0 KHz\nBit depth                                : 24 bits\nCompression mode                         : Lossy\nStream size                              : 1.07 GiB (6%)\nTitle                                    : DTS 5.1 1509 kbps\nLanguage                                 : English\nDefault                                  : No\nForced                                   : No\n\nAudio #2\nID                                       : 3\nFormat                                   : AC-3\nFormat/Info                              : Audio Coding 3\nFormat profile                           : Dolby Digital\nMode extension                           : CM (complete main)\nFormat settings, Endianness              : Big\nCodec ID                                 : A_AC3\nDuration                                 : 1h 41mn\nBit rate mode                            : Constant\nBit rate                                 : 192 Kbps\nChannel(s)                               : 2 channels\nChannel positions                        : Front: L R\nSampling rate                            : 48.0 KHz\nBit depth                                : 16 bits\nCompression mode                         : Lossy\nStream size                              : 139 MiB (1%)\nTitle                                    : Commentary AC3 2.0 192 kbps\nLanguage                                 : English\nDefault                                  : No\nForced                                   : No\n\nText #1\nID                                       : 4\nFormat                                   : UTF-8\nCodec ID                                 : S_TEXT/UTF8\nCodec ID/Info                            : UTF-8 Plain Text\nLanguage                                 : Russian\nDefault                                  : No\nForced                                   : No\n\nText #2\nID                                       : 5\nFormat                                   : UTF-8\nCodec ID                                 : S_TEXT/UTF8\nCodec ID/Info                            : UTF-8 Plain Text\nLanguage                                 : English\nDefault                                  : No\nForced                                   : No\n\nText #3\nID                                       : 6\nFormat                                   : UTF-8\nCodec ID                                 : S_TEXT/UTF8\nCodec ID/Info                            : UTF-8 Plain Text\nLanguage                                 : Danish\nDefault                                  : No\nForced                                   : No\n\nText #4\nID                                       : 7\nFormat                                   : UTF-8\nCodec ID                                 : S_TEXT/UTF8\nCodec ID/Info                            : UTF-8 Plain Text\nLanguage                                 : Portuguese\nDefault                                  : No\nForced                                   : No\n\nText #5\nID                                       : 8\nFormat                                   : UTF-8\nCodec ID                                 : S_TEXT/UTF8\nCodec ID/Info                            : UTF-8 Plain Text\nLanguage                                 : Swedish\nDefault                                  : No\nForced                                   : No","torrent":{"xt":"urn:btih:87cb5368e1fd522099c11b251b609bd47f1bf7a1","amp;dn":"The.Number.23.2007.1080p.DTS.AC3.iSAAC","amp;tr":["udp%3A%2F%2Ftracker.openbittorrent.com%3A80","udp%3A%2F%2Fopen.demonii.com%3A1337","udp%3A%2F%2Ftracker.coppersurfer.tk%3A6969","udp%3A%2F%2Fexodus.desync.com%3A6969"],"infoHash":"87cb5368e1fd522099c11b251b609bd47f1bf7a1","infoHashBuffer":{"type":"Buffer","data":[135,203,83,104,225,253,82,32,153,193,27,37,27,96,155,212,127,27,247,161]},"announce":[],"urlList":[]}}